#!OML:ASF E:\Steps\Project 1\Capture day 1\Session 2\Subject.ASF
:FULLY-SPECIFIED
:DEGREES
147
root 16.6573 16.3372 21.5355 -156.722 -6.38706 177.181
lowerback -26.1402 -1.34163 -6.449
upperback 0.535879 0.0458269 -0.573365
thorax 15.3758 -0.573664 3.03432
lowerneck -5.50126 2.41389 -1.2807
upperneck 10.1999 2.71343 4.18365
head 4.26814 1.40167 1.77878
rclavicle 5.1684e-015 -1.61016e-014
rhumerus -34.5199 -16.7837 -81.5347
rradius 34.0344
rwrist -6.00367
rhand -15.4762 -88.3348
rfingers 7.12502
rthumb 10.7054 -241.958
lclavicle 5.1684e-015 -1.61016e-014
lhumerus -29.4146 4.13286 82.1354
lradius 26.085
lwrist -2.39278
lhand -23.7093 -12.9461
lfingers 7.12502
lthumb 2.7581 17.0158
rfemur -23.2836 6.11439 21.1067
rtibia 12.3193
rfoot -21.071 -5.96871
rtoes -10.0683
lfemur -27.918 -13.0695 -18.6005
ltibia 17.5306
lfoot -9.13871 -3.5872
ltoes -31.472
148
root 16.6707 16.3312 21.5486 -156.614 -6.51883 177.119
lowerback -26.0586 -1.28988 -6.39946
upperback 0.492681 0.0947996 -0.626085
thorax 15.2716 -0.542412 2.96298
lowerneck -5.42928 2.38732 -1.18655
upperneck 10.274 2.66724 4.12172
head 4.28354 1.37709 1.73832
rclavicle -1.78906e-014 4.96962e-015
rhumerus -34.6627 -16.7013 -81.4954
rradius 34.2199
rwrist -5.61524
rhand -15.2557 -88.769
rfingers 7.12502
rthumb 10.9182 -241.535
lclavicle -1.78906e-014 4.96962e-015
lhumerus -29.5585 3.83276 82.1908
lradius 26.2729
lwrist -2.17805
lhand -23.7046 -12.8657
lfingers 7.12502
lthumb 2.76264 17.0962
rfemur -23.5434 6.17014 21.099
rtibia 12.5607
rfoot -21.2444 -6.15288
rtoes -10.5344
lfemur -28.4901 -13.1621 -18.5525
ltibia 18.2158
lfoot -9.13661 -3.66776
ltoes -30.8861
149
root 16.679 16.3243 21.5715 -156.139 -6.38203 176.938
lowerback -26.3367 -1.16775 -6.39818
upperback 0.399168 0.278371 -0.789969
thorax 15.2967 -0.459338 2.84007
lowerneck -5.41398 2.31089 -0.797716
upperneck 10.4155 2.5497 3.81102
head 4.34249 1.31779 1.5595
rclavicle -2.16178e-014 -1.82882e-014
rhumerus -34.7415 -16.6788 -81.5652
rradius 34.4762
rwrist -5.72613
rhand -15.2082 -89.0953
rfingers 7.12502
rthumb 10.9639 -241.211
lclavicle -2.16178e-014 -1.82882e-014
lhumerus -29.5923 3.61365 82.1683
lradius 26.401
lwrist -2.1027
lhand -23.5565 -13.234
lfingers 7.12502
lthumb 2.90571 16.7259
rfemur -24.3613 6.05904 20.8659
rtibia 12.9416
rfoot -21.286 -5.95555
rtoes -10.7665
lfemur -29.6319 -13.2618 -18.6032
ltibia 19.2341
lfoot -9.32629 -3.607
ltoes -30.5722
150
root 16.7034 16.3337 21.5668 -157.298 -7.59964 177.294
lowerback -25.1954 -1.31784 -5.98486
upperback 0.780961 -0.0788145 -0.593497
thorax 15.1469 -0.57008 2.70013
lowerneck -5.38619 2.33769 -0.740496
upperneck 10.49 2.57513 3.79753
head 4.36391 1.33032 1.54686
rclavicle -4.91992e-015 3.24019e-014
rhumerus -34.6696 -16.8258 -81.5347
rradius 34.5766
rwrist -5.90379
rhand -15.2489 -89.2436
rfingers 7.12502
rthumb 10.9247 -241.061
lclavicle -4.91992e-015 3.24019e-014
lhumerus -29.5929 3.58225 82.1784
lradius 26.4559
lwrist -2.21026
lhand -23.3296 -12.6537
lfingers 7.12502
lthumb 3.12479 17.3031
rfemur -22.5343 6.28357 21.6368
rtibia 12.1062
rfoot -21.1987 -7.12075
rtoes -10.4935
lfemur -28.9434 -13.7564 -18.0643
ltibia 20.1286
lfoot -9.55971 -4.18747
ltoes -29.9695
151
root 16.7138 16.3261 21.5775 -157.355 -7.75848 177.442
lowerback -25.0976 -1.17238 -5.68431
upperback 0.822619 0.027238 -0.59988
thorax 15.1299 -0.495554 2.56069
lowerneck -5.31118 2.42487 -0.886034
upperneck 10.4313 2.6854 4.00325
head 4.32063 1.38753 1.64555
rclavicle 2.8128e-014 -3.24019e-014
rhumerus -34.6233 -17.0576 -81.4105
rradius 34.5298
rwrist -5.90699
rhand -15.2435 -89.2805
rfingers 7.12502
rthumb 10.9299 -241.024
lclavicle 2.8128e-014 -3.24019e-014
lhumerus -29.691 3.40357 82.2014
lradius 26.5574
lwrist -2.13433
lhand -23.1842 -12.7445
lfingers 7.12502
lthumb 3.26517 17.2102
rfemur -22.5093 6.25305 21.8745
rtibia 12.027
rfoot -21.1655 -7.11201
rtoes -9.87459
lfemur -29.3358 -13.9261 -17.7892
ltibia 20.8524
lfoot -9.76995 -4.06877
ltoes -29.5668
152
root 16.714 16.3091 21.607 -156.28 -6.8803 177.056
lowerback -25.9725 -0.879869 -5.88414
upperback 0.557445 0.516773 -0.860392
thorax 15.263 -0.299607 2.55507
lowerneck -5.22736 2.48219 -0.953522
upperneck 10.3517 2.76834 4.05321
head 4.27115 1.42794 1.67509
rclavicle -2.95195e-014 -5.1684e-015
rhumerus -34.6739 -16.971 -81.3412
rradius 34.6088
rwrist -5.97938
rhand -15.1652 -89.3703
rfingers 7.12502
rthumb 11.0055 -240.938
lclavicle -2.95195e-014 -5.1684e-015
lhumerus -29.8013 3.25609 82.2098
lradius 26.6395
lwrist -2.08257
lhand -22.9804 -13.2951
lfingers 7.12502
lthumb 3.46203 16.6565
rfemur -24.3302 5.9034 21.2383
rtibia 12.8377
rfoot -21.1623 -6.0994
rtoes -9.5939
lfemur -30.9707 -13.7356 -18.1321
ltibia 21.6932
lfoot -9.94374 -3.59441
ltoes -28.8793
153
root 16.7454 16.3157 21.5913 -157.995 -8.45347 177.659
lowerback -24.3333 -1.14313 -5.34025
upperback 1.05971 -0.0582885 -0.48133
thorax 14.9843 -0.497165 2.4722
lowerneck -5.15294 2.52595 -0.969089
upperneck 10.3634 2.8414 3.93952
head 4.25908 1.45773 1.64143
rclavicle -2.2413e-014 1.94809e-014
rhumerus -34.6836 -16.8716 -81.2926
rradius 34.7672
rwrist -5.60999
rhand -14.9568 -89.5688
rfingers 7.12502
rthumb 11.2064 -240.75
lclavicle -2.2413e-014 1.94809e-014
lhumerus -29.8505 3.36477 82.2106
lradius 26.642
lwrist -2.03269
lhand -22.568 -13.8113
lfingers 7.12502
lthumb 3.86026 16.1335
rfemur -21.8333 6.05282 22.4574
rtibia 12.0267
rfoot -21.2048 -7.43435
rtoes -9.62691
lfemur -29.6567 -14.409 -17.347
ltibia 22.4658
lfoot -9.99321 -4.33258
ltoes -27.0463
154
root 16.7337 16.2935 21.6441 -156.076 -6.94092 176.976
lowerback -25.7146 -0.718103 -5.7841
upperback 0.500642 0.683347 -0.893858
thorax 15.0338 -0.207987 2.52118
lowerneck -5.02279 2.59295 -0.916113
upperneck 10.4522 2.93195 3.81571
head 4.26429 1.49571 1.59323
rclavicle -1.98785e-016 -7.35503e-015
rhumerus -34.7024 -16.9063 -81.2223
rradius 34.8222
rwrist -4.84386
rhand -14.6011 -89.8233
rfingers 7.12502
rthumb 11.5495 -240.515
lclavicle -1.98785e-016 -7.35503e-015
lhumerus -29.9288 3.30753 82.2759
lradius 26.7049
lwrist -1.66295
lhand -22.0174 -13.9277
lfingers 7.12502
lthumb 4.392 16.0067
rfemur -25.3649 5.44468 21.3101
rtibia 14.129
rfoot -21.5656 -5.75208
rtoes -10.1628
lfemur -32.5071 -13.941 -18.0315
ltibia 23.9401
lfoot -10.3872 -3.60185
ltoes -27.832
155
root 16.7659 16.2985 21.6241 -157.544 -8.65253 177.182
lowerback -24.3134 -1.11067 -5.64987
upperback 0.993279 0.0770991 -0.582374
thorax 14.8824 -0.455542 2.5818
lowerneck -5.05769 2.61765 -0.917247
upperneck 10.5484 2.96164 3.80068
head 4.3053 1.50922 1.59278
rclavicle 2.14936e-014 -2.5842e-014
rhumerus -34.6353 -16.7964 -81.1298
rradius 34.553
rwrist -4.59369
rhand -14.2989 -89.6963
rfingers 7.12502
rthumb 11.8409 -240.658
lclavicle 2.14936e-014 -2.5842e-014
lhumerus -29.9193 3.23405 82.4096
lradius 26.7527
lwrist -1.50401
lhand -21.8468 -13.9353
lfingers 7.12502
lthumb 4.55668 15.9957
rfemur -22.9529 5.51536 22.0236
rtibia 13.1105
rfoot -21.6747 -7.3093
rtoes -9.95524
lfemur -31.4159 -14.6956 -17.6587
ltibia 24.6834
lfoot -10.3157 -4.15542
ltoes -28.4789
156
root 16.789 16.2956 21.6255 -158.05 -9.34386 177.362
lowerback -23.7253 -1.18 -5.4976
upperback 1.14051 -0.0898962 -0.433379
thorax 14.7356 -0.514436 2.60826
lowerneck -4.98891 2.60304 -0.911735
upperneck 10.5654 2.94452 3.75491
head 4.29867 1.49779 1.57413
rclavicle 1.79403e-014 -3.8763e-015
rhumerus -34.7343 -16.583 -81.0163
rradius 34.4585
rwrist -4.44136
rhand -14.1274 -268.684
rfingers 7.12502
rthumb 12.0063 -239.048
lclavicle 1.79403e-014 -3.8763e-015
lhumerus -30.042 3.21041 82.4853
lradius 26.7651
lwrist -1.65633
lhand -21.9293 -13.9467
lfingers 7.12502
lthumb 4.47706 15.9859
rfemur -22.2109 5.51288 22.4549
rtibia 12.8517
rfoot -21.7794 -7.82309
rtoes -9.82507
lfemur -31.5081 -14.8915 -17.3718
ltibia 25.7093
lfoot -10.2177 -4.24411
ltoes -29.3103
157
root 16.8 16.289 21.635 -157.939 -9.38796 177.295
lowerback -23.7205 -1.10143 -5.48804
upperback 1.13309 0.0137614 -0.456288
thorax 14.7145 -0.465478 2.61351
lowerneck -5.02138 2.57313 -0.860369
upperneck 10.5761 2.91539 3.63274
head 4.31203 1.48121 1.52317
rclavicle 4.84041e-014 -1.60022e-014
rhumerus -34.8738 -17.7833 -79.9976
rradius 33.1152
rwrist -2.61087
rhand -13.8874 -448.133
rfingers 7.12502
rthumb 12.2377 -242.245
lclavicle 4.84041e-014 -1.60022e-014
lhumerus -30.1257 3.06923 82.5439
lradius 26.7112
lwrist -1.74884
lhand -22.0222 -14.2049
lfingers 7.12502
lthumb 4.38733 15.7296
rfemur -22.473 5.34336 22.4277
rtibia 13.0992
rfoot -21.911 -7.6135
rtoes -9.36631
lfemur -32.3044 -15.0169 -17.3531
ltibia 27.0216
lfoot -10.2408 -4.07355
ltoes -29.0059
158
root 16.8105 16.2837 21.644 -157.818 -9.44539 177.178
lowerback -23.7713 -1.03205 -5.54183
upperback 1.16548 0.130414 -0.478083
thorax 14.7724 -0.417834 2.66101
lowerneck -5.02807 2.53401 -0.774369
upperneck 10.643 2.8712 3.46234
head 4.3419 1.45496 1.44947
rclavicle 9.21864e-015 2.06736e-014
rhumerus -34.812 -18.645 -79.3632
rradius 32.0549
rwrist -1.36217
rhand -13.7588 -444.928
rfingers 7.12502
rthumb 12.3616 -245.458
lclavicle 9.21864e-015 2.06736e-014
lhumerus -30.0536 2.92794 82.6508
lradius 26.3775
lwrist -2.11388
lhand -22.8043 -15.3173
lfingers 7.12502
lthumb 3.63207 14.6315
rfemur -22.6942 5.09109 22.34
rtibia 13.2194
rfoot -21.9645 -7.40614
rtoes -8.90786
lfemur -33.0873 -15.0602 -17.3961
ltibia 28.1824
lfoot -10.0714 -4.16096
ltoes -28.3154
